HIERARCHY
ROOT Hips
{
    OFFSET 0.000000 0.000000 0.000000
    CHANNELS 6 Xposition Yposition Zposition Zrotation Xrotation Yrotation
    JOINT Spine
    {
        OFFSET -0.000000 14.517291 0.000000
        CHANNELS 3 Zrotation Xrotation Yrotation
        JOINT Spine1
        {
            OFFSET -0.000000 37.558300 0.000000
            CHANNELS 3 Zrotation Xrotation Yrotation
            JOINT Neck
            {
                OFFSET -0.000000 37.404057 3.400369
                CHANNELS 3 Zrotation Xrotation Yrotation
                JOINT Head
                {
                    OFFSET -0.000000 24.785618 -3.540803
                    CHANNELS 3 Zrotation Xrotation Yrotation
                    End Site
                    {
                        OFFSET -0.000000 35.408028 0.000000
                    }
                }
            }
            JOINT LeftShoulder
            {
                OFFSET 6.992933 33.973492 -0.192664
                CHANNELS 3 Zrotation Xrotation Yrotation
                JOINT LeftArm
                {
                    OFFSET 21.527611 0.000000 0.000000
                    CHANNELS 3 Zrotation Xrotation Yrotation
                    JOINT LeftForeArm
                    {
                        OFFSET 56.353916 0.000000 0.000000
                        CHANNELS 3 Zrotation Xrotation Yrotation
                        JOINT LeftHand
                        {
                            OFFSET 47.774071 0.000000 0.000000
                            CHANNELS 3 Zrotation Xrotation Yrotation
                            End Site
                            {
                                OFFSET 26.556021 0.000000 0.000000
                            }
                        }
                    }
                }
            }
            JOINT RightShoulder
            {
                OFFSET -7.065357 33.973492 -0.192664
                CHANNELS 3 Zrotation Xrotation Yrotation
                JOINT RightArm
                {
                    OFFSET -21.527611 0.000000 0.000000
                    CHANNELS 3 Zrotation Xrotation Yrotation
                    JOINT RightForeArm
                    {
                        OFFSET -56.353916 0.000000 0.000000
                        CHANNELS 3 Zrotation Xrotation Yrotation
                        JOINT RightHand
                        {
                            OFFSET -47.774071 0.000000 0.000000
                            CHANNELS 3 Zrotation Xrotation Yrotation
                            End Site
                            {
                                OFFSET -26.556021 0.000000 0.000000
                            }
                        }
                    }
                }
            }
        }
    }
    JOINT LeftUpLeg
    {
        OFFSET 17.704014 0.000000 0.000000
        CHANNELS 3 Zrotation Xrotation Yrotation
        JOINT LeftLeg
        {
            OFFSET -0.000000 -81.181816 0.000000
            CHANNELS 3 Zrotation Xrotation Yrotation
            JOINT LeftFoot
            {
                OFFSET -0.000000 -62.821102 0.000000
                CHANNELS 3 Zrotation Xrotation Yrotation
                JOINT LeftToeBase
                {
                    OFFSET -0.000000 -11.507608 26.556021
                    CHANNELS 3 Zrotation Xrotation Yrotation
                    End Site
                    {
                        OFFSET -0.000000 0.000000 7.081605
                    }
                }
            }
        }
    }
    JOINT RightUpLeg
    {
        OFFSET -17.704014 0.000000 0.000000
        CHANNELS 3 Zrotation Xrotation Yrotation
        JOINT RightLeg
        {
            OFFSET -0.000000 -81.181816 0.000000
            CHANNELS 3 Zrotation Xrotation Yrotation
            JOINT RightFoot
            {
                OFFSET -0.000000 -62.821102 0.000000
                CHANNELS 3 Zrotation Xrotation Yrotation
                JOINT RightToeBase
                {
                    OFFSET -0.000000 -11.507608 26.556021
                    CHANNELS 3 Zrotation Xrotation Yrotation
                    End Site
                    {
                        OFFSET -0.000000 0.000000 7.081605
                    }
                }
            }
        }
    }
}
MOTION
Frames:    9
Frame Time:    0.008333
15.588218    155.593658    -100.124344    0.425976    -7.039396    43.801212    2.300108    0.908809    3.145678    -8.773105    -0.074592    1.050125    0.471397    -0.972095    -22.506092    17.224535    10.436285    -22.782404    4.829151    8.135567    -20.959364    -28.168674    22.052652    -50.314713    -5.884884    -6.251579    -107.236572    6.780955    -14.718729    -10.300976    -17.463245    -10.776783    1.509945    34.655685    -29.782524    81.896515    -10.212711    -14.261240    73.726097    5.657165    -4.570729    41.508236    19.508310    -0.872044    -2.097506    -13.147469    33.411396    -18.597782    3.394075    -27.421240    43.146404    0.000000    0.000000    0.000000    -16.516342    -14.018661    -14.849088    12.963213    32.072426    -14.330956    5.208647    -1.372500    -18.690931    0.000000    0.000000    0.000000    
15.578633    155.589508    -100.126717    0.434281    -7.043674    43.791355    2.283828    0.917653    3.147268    -8.765555    -0.082531    1.050079    0.467349    -0.949069    -22.528458    17.246748    10.401112    -22.798910    4.826519    8.142266    -20.947317    -28.157591    22.046989    -50.317844    -5.890637    -6.245661    -107.228775    6.766940    -14.718903    -10.308126    -17.438517    -10.730170    1.494464    34.618069    -29.761086    81.864357    -10.245046    -14.309721    73.641396    5.654770    -4.607875    41.527691    19.508902    -0.857976    -2.082288    -13.148479    33.404999    -18.588394    3.406654    -27.415241    43.137215    0.000000    0.000000    0.000000    -16.513311    -14.018825    -14.838502    12.954719    32.077782    -14.318116    5.207036    -1.373672    -18.686920    0.000000    0.000000    0.000000    
15.571335    155.585693    -100.130737    0.442279    -7.046114    43.785812    2.274008    0.913825    3.139385    -8.766194    -0.070175    1.048331    0.447442    -0.950496    -22.552774    17.286642    10.401138    -22.819767    4.830385    8.137498    -20.932653    -28.153028    22.045996    -50.335121    -5.846984    -6.255692    -107.214333    7.161685    -14.707618    -10.377692    -17.418524    -10.697803    1.489376    34.590153    -29.736235    81.816811    -10.269220    -14.350183    73.568420    5.634014    -4.648341    41.543751    19.504755    -0.851575    -2.054825    -13.131765    33.412952    -18.613014    3.394142    -27.432690    43.130878    0.000000    0.000000    0.000000    -16.515087    -14.019506    -14.825704    12.958090    32.082588    -14.333645    5.197597    -1.381751    -18.671976    0.000000    0.000000    0.000000    
15.562601    155.580002    -100.138161    0.444781    -7.045128    43.778664    2.262768    0.912425    3.133890    -8.760333    -0.066136    1.046791    0.457177    -0.948766    -22.567425    17.277086    10.368807    -22.832151    4.827429    8.146409    -20.908579    -28.131630    22.042688    -50.359863    -5.857520    -6.258841    -107.215836    7.149088    -14.723447    -10.369697    -17.399853    -10.674091    1.481341    34.527428    -29.679903    81.737152    -10.307754    -14.455590    73.504677    5.688545    -4.716544    41.530846    19.503582    -0.856274    -2.053239    -13.140623    33.423817    -18.603556    3.411516    -27.425108    43.129070    0.000000    0.000000    0.000000    -16.514658    -14.025310    -14.819180    12.956628    32.084431    -14.327330    5.180164    -1.386596    -18.673841    0.000000    0.000000    0.000000    
15.553803    155.573074    -100.143478    0.449663    -7.043461    43.770176    2.238521    0.900366    3.131465    -8.738055    -0.048867    1.047170    0.442924    -0.933549    -22.584139    17.309507    10.341890    -22.841928    4.825500    8.134327    -20.913801    -28.150162    22.035473    -50.346565    -5.867418    -6.240699    -107.217186    7.178185    -14.721916    -10.374259    -17.369856    -10.627435    1.475942    34.477386    -29.654924    81.677307    -10.352400    -14.527431    73.421646    5.736889    -4.748703    41.558113    19.497433    -0.858281    -2.058512    -13.143015    33.433781    -18.602013    3.426408    -27.436836    43.143669    0.000000    0.000000    0.000000    -16.517775    -14.030354    -14.818478    12.955354    32.090134    -14.327054    5.197086    -1.403095    -18.671522    0.000000    0.000000    0.000000    
15.543657    155.566055    -100.155472    0.448873    -7.035937    43.757874    2.228312    0.887289    3.125582    -8.734212    -0.037412    1.045902    0.423963    -0.925903    -22.603823    17.344097    10.334681    -22.857080    4.829749    8.133775    -20.901751    -28.132582    22.049711    -50.365341    -5.847922    -6.274950    -107.219017    7.164385    -14.727953    -10.366316    -17.341291    -10.573017    1.477332    34.438980    -29.628372    81.633606    -10.416955    -14.619308    73.332024    5.760240    -4.803982    41.465847    19.495934    -0.866010    -2.072159    -13.172988    33.431221    -18.580227    3.444038    -27.436979    43.164120    0.000000    0.000000    0.000000    -16.521488    -14.047305    -14.822180    12.952217    32.093281    -14.330768    5.179416    -1.406951    -18.656729    0.000000    0.000000    0.000000    
15.536839    155.559769    -100.166199    0.455044    -7.030702    43.749393    2.211699    0.878131    3.115111    -8.720645    -0.025626    1.043281    0.406413    -0.914041    -22.613203    17.376884    10.316999    -22.860008    4.830452    8.125524    -20.894476    -28.150105    22.037628    -50.363346    -5.857285    -6.250226    -107.230705    7.189107    -14.717417    -10.324048    -17.308605    -10.521859    1.482372    34.400249    -29.599306    81.583206    -10.491313    -14.686232    73.226891    5.743526    -4.833432    41.551331    19.482754    -0.871489    -2.075302    -13.165087    33.446159    -18.599731    3.458761    -27.439114    43.182549    0.000000    0.000000    0.000000    -16.529160    -14.051456    -14.823129    12.954311    32.091560    -14.327707    5.158813    -1.419072    -18.658930    0.000000    0.000000    0.000000    
15.529304    155.551315    -100.182068    0.451437    -7.020059    43.736008    2.204237    0.858352    3.105275    -8.710165    -0.010293    1.040969    0.394145    -0.914232    -22.631645    17.378660    10.319643    -22.877840    4.823053    8.120203    -20.882393    -28.146154    22.043146    -50.369240    -5.842177    -6.264546    -107.235802    7.151828    -14.709626    -10.336264    -17.283222    -10.464233    1.477649    34.386440    -29.578930    81.549843    -10.532918    -14.727992    73.137581    5.704676    -4.872246    41.562500    19.469343    -0.889475    -2.055431    -13.147861    33.465527    -18.618330    3.466280    -27.452835    43.192638    0.000000    0.000000    0.000000    -16.537586    -14.070575    -14.830028    12.950797    32.093185    -14.315954    5.163507    -1.424829    -18.651413    0.000000    0.000000    0.000000    
15.524337    155.541397    -100.199890    0.454258    -7.012689    43.718441    2.191695    0.848009    3.102369    -8.697498    0.004875    1.041058    0.383365    -0.911063    -22.642473    17.391691    10.305795    -22.884859    4.830083    8.113489    -20.873348    -28.150612    22.055367    -50.391968    -5.820859    -6.294623    -107.240341    7.109428    -14.707594    -10.338081    -17.244837    -10.387650    1.461784    34.380081    -29.582592    81.533989    -10.557102    -14.755831    73.047058    5.711524    -4.894084    41.548271    19.459530    -0.899453    -2.054957    -13.166841    33.484871    -18.584063    3.478783    -27.464771    43.185925    0.000000    0.000000    0.000000    -16.549231    -14.082574    -14.820494    12.965055    32.090530    -14.318870    5.141166    -1.431767    -18.645569    0.000000    0.000000    0.000000    
